# xmcd
#
# Track frame offsets: 
#        150
#        12720
#        26140
#        38205
#        49845
#        62932
#        75610
#
# Disc length: 1173 seconds
#
# Revision: 0
# Processed by: cddbd v1.5.2PL0 Copyright (c) Steve Scherf et al.
# Submitted via: ExactAudioCopy v0.95b4
#
DISCID=5c049307
DTITLE=LeRoy Lange - Treat Me Like A Train
DYEAR=1996
DGENRE=Country
TTITLE0=Workin' Overtime
TTITLE1=I Cry
TTITLE2=Treat Me Like A Train
TTITLE3=Why You Waitin'
TTITLE4=Somewhere New
TTITLE5=I Can't Wait
TTITLE6=Brother In Heaven
EXTD=
EXTT0=
EXTT1=
EXTT2=
EXTT3=
EXTT4=
EXTT5=
EXTT6=
PLAYORDER=
